<svg width="136" height="125" viewBox="0 0 136 125" fill="none" xmlns="http://www.w3.org/2000/svg">
<path d="M123.609 80.9869C121.152 86.2311 125.032 94.4751 119.862 97.8577C112.363 102.763 98.6379 89.8646 91.6989 95.3712C84.1823 101.336 100.974 119.079 91.5731 122.374C80.9093 126.112 77.005 105.965 67.5737 100.205C64.3815 98.2552 60.514 95.2994 56.7471 96.1351C43.5021 99.0736 43.781 128.668 30.9187 124.62C20.8249 121.444 29.1965 105.268 31.3241 96.0151C32.8194 89.5122 44.4541 82.7112 39.9431 77.3972C32.0799 68.1344 5.13759 91.6782 0.350325 80.9086C-3.25733 72.7927 22.1379 73.5158 24.2963 65.0099C25.3571 60.8293 19.0099 57.5761 17.4237 53.5266C15.5051 48.6283 10.7433 42.2409 14.2442 38.0766C18.0285 33.5752 29.0963 40.2351 33.3841 36.0986C39.5889 30.1129 26.1389 15.6029 34.1058 11.5459C40.7986 8.13776 47.1618 22.8667 54.7048 21.3741C64.3611 19.4634 62.6317 1.29489 72.43 0.0669486C79.4681 -0.815073 84.4517 7.23148 89.5037 11.6365C93.9869 15.5455 98.9261 19.7337 101.313 24.877C103.68 29.9803 102.819 35.9925 103.396 41.4819C103.829 45.602 101.682 50.6479 104.459 53.9854C111.031 61.8837 132.449 55.6562 135.739 65.0099C137.869 71.0684 126.355 75.1238 123.609 80.9869Z" fill="#D81484"/>
<path d="M65.8108 61.16C64.1894 61.16 62.9201 60.6373 62.0028 59.592C61.0854 58.5467 60.6268 57.1707 60.6268 55.464C60.6268 55.0587 60.6374 54.632 60.6588 54.184C60.7014 53.736 60.7441 53.2667 60.7868 52.776L65.7148 53.16C65.6081 53.5227 65.5548 53.7787 65.5548 53.928C65.5548 54.3547 65.6828 54.664 65.9388 54.856C66.1948 55.048 66.4934 55.144 66.8348 55.144C67.4321 55.144 67.9868 54.888 68.4988 54.376C69.0321 53.864 69.2988 53.1067 69.2988 52.104C69.2988 51.5493 69.0748 51.08 68.6267 50.696C68.2001 50.312 67.2934 50.12 65.9068 50.12C65.6721 50.12 65.4054 50.1307 65.1068 50.152C64.8294 50.1733 64.4134 50.2267 63.8588 50.312C63.3041 50.376 62.4934 50.504 61.4268 50.696C61.6614 49.096 61.9494 47.2613 62.2908 45.192C62.6321 43.1013 63.0481 40.744 63.5388 38.12L75.7308 37.672L75.0908 42.888C74.4934 42.9093 73.8961 42.9307 73.2988 42.952C72.7014 42.9733 72.0934 42.9947 71.4748 43.016C70.8561 43.0373 70.2268 43.0587 69.5868 43.08C68.9681 43.1013 68.3388 43.1333 67.6988 43.176L67.3788 45.864C68.7441 45.864 69.9068 45.992 70.8668 46.248C71.8268 46.504 72.6054 46.856 73.2028 47.304C73.8001 47.752 74.2268 48.2853 74.4828 48.904C74.7601 49.5013 74.8988 50.1733 74.8988 50.92C74.8988 51.9653 74.6321 53.096 74.0988 54.312C73.5868 55.5067 72.8614 56.6373 71.9228 57.704C70.9628 58.792 69.9494 59.6453 68.8828 60.264C67.8161 60.8613 66.7921 61.16 65.8108 61.16ZM82.041 60.968C80.7397 60.968 79.6837 60.6587 78.873 60.04C78.0623 59.4213 77.465 58.5893 77.081 57.544C76.7183 56.4773 76.537 55.2933 76.537 53.992V53.48H75.001C75.193 52.84 75.3637 52.2533 75.513 51.72C75.6623 51.1867 75.769 50.696 75.833 50.248H76.953L77.241 49H76.217C76.025 49 75.8863 48.9893 75.801 48.968C75.8437 48.776 75.897 48.584 75.961 48.392C76.025 48.2 76.0783 48.0187 76.121 47.848L76.409 46.824C76.4517 46.6533 76.4943 46.4827 76.537 46.312C76.601 46.12 76.6543 45.9493 76.697 45.8H78.329C79.033 44.2427 79.8437 42.8453 80.761 41.608C81.6997 40.3493 82.7237 39.3467 83.833 38.6C84.9637 37.8533 86.1583 37.48 87.417 37.48C88.2063 37.48 88.857 37.7787 89.369 38.376C89.9023 38.952 90.3077 39.7413 90.585 40.744C90.8837 41.7253 91.0543 42.8133 91.097 44.008L87.385 45.48C87.2997 44.9253 87.161 44.488 86.969 44.168C86.777 43.8267 86.5103 43.656 86.169 43.656C85.6143 43.656 85.081 43.8693 84.569 44.296C84.057 44.7227 83.5877 45.2667 83.161 45.928H85.113C85.0063 46.3973 84.8997 46.8987 84.793 47.432C84.6863 47.9653 84.5797 48.4773 84.473 48.968C84.3663 48.9893 84.2597 49 84.153 49C84.0463 49 83.9503 49 83.865 49H81.753C81.6677 49.2133 81.6037 49.4267 81.561 49.64L81.369 50.248H82.777C83.0117 50.248 83.2357 50.248 83.449 50.248C83.6837 50.248 83.9077 50.2587 84.121 50.28C84.057 50.5787 83.993 50.9093 83.929 51.272C83.865 51.6133 83.8117 51.944 83.769 52.264C83.7477 52.4347 83.7263 52.6267 83.705 52.84C83.6837 53.032 83.6623 53.224 83.641 53.416H80.985C81.0277 54.1627 81.1877 54.7707 81.465 55.24C81.7423 55.7093 82.1797 55.944 82.777 55.944C83.2463 55.944 83.6837 55.7947 84.089 55.496C84.4943 55.176 84.857 54.7707 85.177 54.28L87.929 56.776C87.1823 58.0347 86.3183 59.048 85.337 59.816C84.377 60.584 83.2783 60.968 82.041 60.968ZM45.5484 80V69.612H47.2984V80H45.5484ZM54.2013 80V78.488L54.1033 78.166V75.52C54.1033 75.0067 53.9493 74.61 53.6413 74.33C53.3333 74.0407 52.8666 73.896 52.2413 73.896C51.8213 73.896 51.4059 73.9613 50.9953 74.092C50.5939 74.2227 50.2533 74.4047 49.9733 74.638L49.2873 73.364C49.6886 73.056 50.1646 72.8273 50.7153 72.678C51.2753 72.5193 51.8539 72.44 52.4513 72.44C53.5339 72.44 54.3693 72.7013 54.9573 73.224C55.5546 73.7373 55.8533 74.5353 55.8533 75.618V80H54.2013ZM51.8493 80.098C51.2893 80.098 50.7993 80.0047 50.3793 79.818C49.9593 79.622 49.6326 79.356 49.3993 79.02C49.1753 78.6747 49.0633 78.2873 49.0633 77.858C49.0633 77.438 49.1613 77.06 49.3573 76.724C49.5626 76.388 49.8939 76.122 50.3513 75.926C50.8086 75.73 51.4153 75.632 52.1713 75.632H54.3413V76.794H52.2973C51.6999 76.794 51.2986 76.892 51.0933 77.088C50.8879 77.2747 50.7853 77.508 50.7853 77.788C50.7853 78.1053 50.9113 78.3573 51.1633 78.544C51.4153 78.7307 51.7653 78.824 52.2133 78.824C52.6426 78.824 53.0253 78.726 53.3613 78.53C53.7066 78.334 53.9539 78.0447 54.1033 77.662L54.3973 78.712C54.2293 79.1507 53.9259 79.4913 53.4873 79.734C53.0579 79.9767 52.5119 80.098 51.8493 80.098ZM66.1123 80.098C65.5056 80.098 64.9503 79.958 64.4463 79.678C63.9516 79.398 63.555 78.978 63.2563 78.418C62.967 77.8487 62.8223 77.13 62.8223 76.262C62.8223 75.3847 62.9623 74.666 63.2423 74.106C63.5316 73.546 63.9236 73.1307 64.4183 72.86C64.913 72.58 65.4776 72.44 66.1123 72.44C66.8496 72.44 67.4983 72.5987 68.0583 72.916C68.6276 73.2333 69.0756 73.6767 69.4023 74.246C69.7383 74.8153 69.9063 75.4873 69.9063 76.262C69.9063 77.0367 69.7383 77.7133 69.4023 78.292C69.0756 78.8613 68.6276 79.3047 68.0583 79.622C67.4983 79.9393 66.8496 80.098 66.1123 80.098ZM61.9683 82.716V72.524H63.6343V74.288L63.5783 76.276L63.7183 78.264V82.716H61.9683ZM65.9163 78.6C66.3363 78.6 66.7096 78.5067 67.0363 78.32C67.3723 78.1333 67.6383 77.8627 67.8343 77.508C68.0303 77.1533 68.1283 76.738 68.1283 76.262C68.1283 75.7767 68.0303 75.3613 67.8343 75.016C67.6383 74.6613 67.3723 74.3907 67.0363 74.204C66.7096 74.0173 66.3363 73.924 65.9163 73.924C65.4963 73.924 65.1183 74.0173 64.7823 74.204C64.4463 74.3907 64.1803 74.6613 63.9843 75.016C63.7883 75.3613 63.6903 75.7767 63.6903 76.262C63.6903 76.738 63.7883 77.1533 63.9843 77.508C64.1803 77.8627 64.4463 78.1333 64.7823 78.32C65.1183 78.5067 65.4963 78.6 65.9163 78.6ZM76.0763 80V78.488L75.9783 78.166V75.52C75.9783 75.0067 75.8243 74.61 75.5163 74.33C75.2083 74.0407 74.7416 73.896 74.1163 73.896C73.6963 73.896 73.2809 73.9613 72.8703 74.092C72.4689 74.2227 72.1283 74.4047 71.8483 74.638L71.1623 73.364C71.5636 73.056 72.0396 72.8273 72.5903 72.678C73.1503 72.5193 73.7289 72.44 74.3263 72.44C75.4089 72.44 76.2443 72.7013 76.8323 73.224C77.4296 73.7373 77.7283 74.5353 77.7283 75.618V80H76.0763ZM73.7243 80.098C73.1643 80.098 72.6743 80.0047 72.2543 79.818C71.8343 79.622 71.5076 79.356 71.2743 79.02C71.0503 78.6747 70.9383 78.2873 70.9383 77.858C70.9383 77.438 71.0363 77.06 71.2323 76.724C71.4376 76.388 71.7689 76.122 72.2263 75.926C72.6836 75.73 73.2903 75.632 74.0463 75.632H76.2163V76.794H74.1723C73.5749 76.794 73.1736 76.892 72.9683 77.088C72.7629 77.2747 72.6603 77.508 72.6603 77.788C72.6603 78.1053 72.7863 78.3573 73.0383 78.544C73.2903 78.7307 73.6403 78.824 74.0883 78.824C74.5176 78.824 74.9003 78.726 75.2363 78.53C75.5816 78.334 75.8289 78.0447 75.9783 77.662L76.2723 78.712C76.1043 79.1507 75.8009 79.4913 75.3623 79.734C74.9329 79.9767 74.3869 80.098 73.7243 80.098ZM79.9742 80V72.524H81.6402V74.582L81.4442 73.98C81.6682 73.476 82.0182 73.0933 82.4942 72.832C82.9795 72.5707 83.5815 72.44 84.3002 72.44V74.106C84.2255 74.0873 84.1555 74.078 84.0902 74.078C84.0248 74.0687 83.9595 74.064 83.8942 74.064C83.2315 74.064 82.7042 74.26 82.3122 74.652C81.9202 75.0347 81.7242 75.6087 81.7242 76.374V80H79.9742ZM88.8722 80.098C88.0508 80.098 87.4162 79.888 86.9682 79.468C86.5202 79.0387 86.2962 78.4087 86.2962 77.578V70.872H88.0462V77.536C88.0462 77.8907 88.1348 78.166 88.3122 78.362C88.4988 78.558 88.7555 78.656 89.0822 78.656C89.4742 78.656 89.8008 78.5533 90.0622 78.348L90.5522 79.594C90.3468 79.762 90.0948 79.888 89.7962 79.972C89.4975 80.056 89.1895 80.098 88.8722 80.098ZM85.0642 73.98V72.58H90.0482V73.98H85.0642ZM91.9918 80V72.524H93.7418V80H91.9918ZM92.8738 71.292C92.5471 71.292 92.2764 71.1893 92.0618 70.984C91.8564 70.7787 91.7538 70.5313 91.7538 70.242C91.7538 69.9433 91.8564 69.696 92.0618 69.5C92.2764 69.2947 92.5471 69.192 92.8738 69.192C93.2004 69.192 93.4664 69.29 93.6718 69.486C93.8864 69.6727 93.9938 69.9107 93.9938 70.2C93.9938 70.508 93.8911 70.7693 93.6858 70.984C93.4804 71.1893 93.2098 71.292 92.8738 71.292ZM99.5526 80.098C98.722 80.098 97.994 79.9347 97.3686 79.608C96.7526 79.272 96.272 78.8147 95.9266 78.236C95.5906 77.6573 95.4226 76.9993 95.4226 76.262C95.4226 75.5153 95.586 74.8573 95.9126 74.288C96.2486 73.7093 96.706 73.2567 97.2846 72.93C97.8726 72.6033 98.54 72.44 99.2866 72.44C100.015 72.44 100.663 72.5987 101.233 72.916C101.802 73.2333 102.25 73.6813 102.577 74.26C102.903 74.8387 103.067 75.52 103.067 76.304C103.067 76.3787 103.062 76.4627 103.053 76.556C103.053 76.6493 103.048 76.738 103.039 76.822H96.8086V75.66H102.115L101.429 76.024C101.438 75.5947 101.349 75.2167 101.163 74.89C100.976 74.5633 100.719 74.3067 100.393 74.12C100.075 73.9333 99.7066 73.84 99.2866 73.84C98.8573 73.84 98.4793 73.9333 98.1526 74.12C97.8353 74.3067 97.5833 74.568 97.3966 74.904C97.2193 75.2307 97.1306 75.618 97.1306 76.066V76.346C97.1306 76.794 97.2333 77.1907 97.4386 77.536C97.644 77.8813 97.9333 78.1473 98.3066 78.334C98.68 78.5207 99.1093 78.614 99.5946 78.614C100.015 78.614 100.393 78.5487 100.729 78.418C101.065 78.2873 101.363 78.082 101.625 77.802L102.563 78.88C102.227 79.272 101.802 79.5753 101.289 79.79C100.785 79.9953 100.206 80.098 99.5526 80.098Z" fill="white"/>
</svg>
