<svg width="120" height="120" viewBox="0 0 120 120" fill="none" xmlns="http://www.w3.org/2000/svg">
<g clip-path="url(#clip0_10_45)">
<path d="M62.4371 7.88835C61.3581 10.0837 59.5348 12.5023 58.4185 13.2465C57.1162 14.1023 55.7395 13.4697 52.5767 10.493C51.1627 9.15347 49.972 8.14882 49.8976 8.22324C49.8232 8.29765 49.4883 9.56277 49.1534 10.9767C48.4092 14.0651 47.1441 16.4837 46.1767 16.6697C44.8744 16.9302 43.1255 16.3721 40.2604 14.7349L37.3953 13.0977V16.2977C37.3953 20.1674 36.9116 22.1767 35.8325 22.7349C34.8651 23.2558 31.9255 22.9581 28.8744 21.9907C26.7906 21.3581 26.6046 21.3209 26.7534 21.8791C27.6092 24.6325 28.093 27.2744 28.093 28.9488C28.093 30.8837 28.0558 30.9209 26.7162 31.5163C25.786 31.8884 24.0744 32.1116 21.879 32.1488C19.9813 32.1488 18.4185 32.2232 18.4185 32.2605C18.4185 32.3349 18.9395 33.1907 19.572 34.2325C21.1348 36.7628 22.2511 39.7767 21.9906 40.7814C21.879 41.2279 21.3581 41.8605 20.8744 42.1581C20.0185 42.7163 16.4465 43.9442 14.1767 44.4651L13.0976 44.6884L15.3302 46.9953C18.0837 49.8605 18.7906 50.8651 18.7906 52.093C18.7906 53.3209 17.1906 54.8837 13.879 56.8186L11.386 58.2698L13.6558 59.5349C16.8558 61.2837 18.7906 63.107 18.7906 64.3349C18.7906 65.6 18.1209 66.6046 15.3674 69.4325L13.172 71.7023L15.7023 72.3721C19.2371 73.3023 21.693 74.6046 21.9534 75.6465C22.2139 76.6884 21.1348 79.6651 19.572 82.2325C18.9395 83.2744 18.4185 84.1302 18.4185 84.2046C18.4185 84.2418 19.9813 84.3163 21.879 84.3163C24.0744 84.3535 25.786 84.5767 26.679 84.9488C28.0558 85.5442 28.093 85.5814 28.093 87.5163C28.093 89.1907 27.6092 91.8325 26.7534 94.586C26.6046 95.1442 26.7906 95.107 28.8744 94.4744C31.9255 93.507 34.8651 93.2093 35.8325 93.7302C36.9116 94.2884 37.3953 96.2977 37.3953 100.167V103.367L40.2604 101.73C43.1255 100.093 44.8744 99.5349 46.1767 99.7953C47.1441 99.9814 48.2976 102.177 49.079 105.377C49.4883 106.865 49.8232 108.167 49.8976 108.242C49.972 108.316 51.1627 107.312 52.5767 105.972C55.7395 102.995 57.1162 102.363 58.4185 103.219C59.5348 103.963 61.3581 106.381 62.4371 108.54C62.8837 109.433 63.293 110.14 63.4046 110.14C63.5534 110.14 64.186 109.135 64.8557 107.907C66.2697 105.302 68.0185 103.219 69.0232 102.884C70.065 102.549 71.8883 103.628 74.493 106.158C75.7953 107.386 76.8744 108.316 76.9488 108.242C77.0232 108.167 77.4325 106.753 77.9162 105.116C79.0697 101.023 79.9255 99.7209 81.4139 99.7209C82.6418 99.7209 86.5488 101.395 88.4092 102.735L89.4883 103.479V100.465C89.4883 96.7442 90.0837 94.2512 91.0883 93.693C92.0185 93.2093 94.9953 93.5442 98.0464 94.4744L100.353 95.2186L100.13 94.4C98.6046 89.0791 98.3813 86.4372 99.3488 85.4325C100.13 84.6512 102.102 84.3163 105.6 84.3163C107.163 84.3163 108.465 84.2418 108.465 84.1674C108.465 84.093 107.87 83.0512 107.163 81.8605C105.526 79.1814 104.632 76.7256 104.93 75.6465C105.228 74.4558 108.465 72.9674 112.707 72L113.786 71.7767L111.553 69.4698C108.763 66.6046 108.093 65.6 108.093 64.3349C108.093 63.1442 109.619 61.693 113.005 59.7209C114.307 58.9767 115.386 58.307 115.46 58.2325C115.535 58.1581 114.567 57.5628 113.339 56.9302C110.102 55.1814 108.093 53.3581 108.093 52.1302C108.093 50.8651 108.763 49.8605 111.553 46.9953L113.786 44.6884L112.707 44.4651C108.13 43.386 105.228 42.0465 104.93 40.8186C104.632 39.7395 105.526 37.2837 107.163 34.6046C107.87 33.4139 108.465 32.4093 108.465 32.3349C108.465 32.2605 107.163 32.186 105.6 32.186C102.102 32.1488 100.13 31.8139 99.3488 31.0325C98.3813 30.0279 98.6046 27.386 100.13 22.0651L100.353 21.2465L98.0464 21.9907C94.9953 22.9209 92.0185 23.2558 91.0883 22.7721C90.0837 22.2139 89.4883 19.7209 89.4883 16V12.986L88.4092 13.7302C86.5488 15.0697 82.6418 16.7442 81.4139 16.7442C79.9255 16.7442 79.0697 15.4418 77.9162 11.3488C77.4325 9.71161 77.0232 8.29765 76.9488 8.22324C76.8744 8.14882 75.7953 9.07905 74.493 10.307C71.8883 12.8372 70.065 13.9163 69.0232 13.5814C68.0185 13.2465 66.2697 11.1628 64.8557 8.55812C64.186 7.33022 63.5534 6.32556 63.4046 6.32556C63.293 6.32556 62.8837 7.03254 62.4371 7.88835Z" fill="#FEEF79"/>
</g>
<defs>
<clipPath id="clip0_10_45">
<rect width="120" height="120" fill="white"/>
</clipPath>
</defs>
</svg>
