<svg width="160" height="334" viewBox="0 0 160 334" fill="none" xmlns="http://www.w3.org/2000/svg">
<g clip-path="url(#clip0_11_146)">
<path fill-rule="evenodd" clip-rule="evenodd" d="M243.932 339.221C252.32 339.221 259.129 345.67 259.129 353.616C259.129 361.561 252.32 368.01 243.932 368.01C235.543 368.01 228.735 361.561 228.735 353.616C228.706 345.67 235.515 339.221 243.932 339.221ZM179.985 64.5082C175.446 58.0049 189.609 39.7197 200.065 42.3591C191.189 47.6923 184.466 56.2363 179.985 64.5082ZM82.3125 114.33C70.3333 114.656 66.7136 83.9906 79.3536 78.6574C75.5616 90.004 76.8831 103.255 82.3125 114.33ZM272.142 158.356C287.999 160.125 301.501 136.071 291.964 124.561C291.131 140.506 281.651 149.377 272.142 158.356ZM329.797 223.524C333.676 215.878 324.655 204.776 313.567 205.62C321.581 209.32 326.465 215.633 329.797 223.524ZM7.53556 175.144C3.85848 169.893 15.3206 155.118 23.7664 157.24C16.2974 161.431 10.8966 168.342 7.53556 175.144ZM42.5253 230.354C41.1751 237.238 59.5893 247.659 67.2594 242.027C57.9806 240.558 49.2762 235.714 42.5253 230.354ZM169.816 127.227C167.575 112.561 166.368 98.548 166.914 85.6232C167.431 73.3242 169.902 59.0389 176.222 48.7535C189.465 27.1487 221.639 31.3662 225.862 52.3724C227.27 59.3654 225.374 67.3924 218.738 73.9229C214.314 78.2765 207.563 82.2492 201.502 87.3102C187.196 99.2827 177.198 110.52 169.816 127.227ZM260.622 211.579C271.165 207.28 281.392 203.824 291.159 201.729C300.467 199.742 311.584 198.708 320.49 200.967C339.163 205.729 342.121 228.123 327.212 234.952C322.242 237.211 315.893 237.483 309.746 234.272C305.638 232.122 301.386 228.367 296.474 225.266C284.811 217.919 274.526 213.347 260.622 211.579ZM76.3085 177.865C67.4893 170.927 58.6987 164.859 49.9657 160.233C41.6348 155.825 31.2642 151.853 22.0715 151.635C2.73812 151.2 -6.77059 171.879 5.4672 182.41C9.54647 185.92 15.5792 187.879 22.4163 186.437C26.9839 185.484 32.1835 183.008 37.8428 181.348C51.2297 177.485 62.462 175.852 76.3085 177.865ZM66.4838 76.3173C81.2209 57.3247 116.958 55.0935 130.689 92.9155C133.073 99.6636 135.487 106.357 137.928 112.997C139.48 117.187 141.318 122.874 143.473 128.806C158.727 170.437 183.691 169.485 211.499 137.894C224.627 122.983 229.884 107.038 250.884 99.5548C276.451 90.4394 302.622 106.167 306.672 129.568C311.958 160.043 291.562 166.737 270.16 178.437C263.466 182.11 255.997 186.546 249.333 191.443C239.278 198.845 231.119 207.307 230.43 215.715C228.649 237.837 304 251.85 331.263 266.298C369.24 283.25 352.434 328.528 318.939 328.8C309.746 328.882 300.41 325.154 290.958 317.943L225.058 262.707C220.806 259.06 215.032 259.278 211.499 262.19C205.035 267.468 222.731 306.705 224.11 312.556C229.482 335.603 196.848 350.895 187.569 315.739C180.703 289.699 157.779 258.217 143.99 289.209L141.462 296.801C137.21 309.535 134.424 330.514 117.934 333.181C103.829 335.466 90.2699 321.154 95.6132 308.066C101.617 295.93 115.55 277.563 109.977 264.285C108.77 261.373 105.955 258.571 103.341 256.72C92.1659 248.802 80.158 252.775 67.8627 253.537C59.5605 254.054 53.1257 253.455 48.0697 251.605C32.1261 245.728 28.3915 229.837 34.5391 218.136C45.4555 197.294 66.57 208.803 85.3863 201.756C128.132 185.811 95.2398 148.832 79.0951 130.221C65.3922 114.493 50.5115 96.861 66.4838 76.3173ZM47.4664 284.828C52.6086 284.828 56.774 288.774 56.774 293.645C56.774 298.515 52.6086 302.461 47.4664 302.461C42.3242 302.461 38.1588 298.515 38.1588 293.645C38.1588 288.774 42.353 284.828 47.4664 284.828ZM167.661 338.868C171.195 338.868 174.038 341.589 174.038 344.908C174.038 348.228 171.166 350.949 167.661 350.949C164.128 350.949 161.284 348.228 161.284 344.908C161.284 341.589 164.128 338.868 167.661 338.868Z" fill="#3AB7FC"/>
<path d="M179.985 64.5082C175.446 58.005 189.609 39.7198 200.066 42.3592C191.189 47.6923 184.467 56.2363 179.985 64.5082ZM82.3127 114.33C70.3334 114.656 66.7138 83.9906 79.3538 78.6575C75.5618 90.0041 76.8832 103.255 82.3127 114.33ZM272.142 158.356C288 160.125 301.501 136.071 291.964 124.561C291.131 140.506 281.651 149.377 272.142 158.356ZM329.798 223.524C333.676 215.878 324.655 204.776 313.567 205.62C321.582 209.32 326.465 215.633 329.798 223.524ZM7.53575 175.145C3.85866 169.893 15.3208 155.118 23.7666 157.24C16.2975 161.431 10.8968 168.342 7.53575 175.145ZM42.5255 230.354C41.1753 237.238 59.5895 247.659 67.2596 242.027C57.9807 240.558 49.2764 235.714 42.5255 230.354Z" fill="white"/>
</g>
<defs>
<clipPath id="clip0_11_146">
<rect width="160" height="333.569" fill="white" transform="translate(0 0.431213)"/>
</clipPath>
</defs>
</svg>
