<svg width="196" height="353" viewBox="0 0 196 353" fill="none" xmlns="http://www.w3.org/2000/svg">
<g clip-path="url(#clip0_11_141)">
<path fill-rule="evenodd" clip-rule="evenodd" d="M86.9318 323.526C95.3201 323.526 102.129 330.35 102.129 338.758C102.129 347.166 95.3201 353.991 86.9318 353.991C78.5434 353.991 71.7351 347.166 71.7351 338.758C71.7064 330.35 78.5147 323.526 86.9318 323.526ZM22.985 32.8096C18.4461 25.9275 32.6086 6.57716 43.0654 9.37029C34.1886 15.0141 27.4665 24.0558 22.985 32.8096ZM-74.6875 85.5335C-86.6667 85.8791 -90.2864 53.4269 -77.6464 47.783C-81.4384 59.7906 -80.1169 73.8139 -74.6875 85.5335ZM115.142 132.124C130.999 133.996 144.501 108.541 134.964 96.3605C134.131 113.234 124.651 122.622 115.142 132.124ZM172.797 201.089C176.676 192.997 167.655 181.249 156.567 182.141C164.581 186.057 169.465 192.738 172.797 201.089ZM-149.464 149.891C-153.142 144.333 -141.679 128.697 -133.234 130.943C-140.703 135.378 -146.103 142.692 -149.464 149.891ZM-114.475 208.316C-115.825 215.601 -97.4107 226.63 -89.7406 220.669C-99.0194 219.114 -107.724 213.989 -114.475 208.316ZM12.8156 99.1824C10.5749 83.6618 9.36833 68.8323 9.91415 55.1546C10.4312 42.1392 12.9018 27.0217 19.2218 16.1372C32.465 -6.72621 64.6395 -2.26296 68.8624 19.9669C70.27 27.3673 68.374 35.8618 61.738 42.7727C57.314 47.3799 50.5632 51.584 44.5017 56.9399C30.1956 69.6098 20.1985 81.5022 12.8156 99.1824ZM103.622 188.447C114.165 183.898 124.392 180.241 134.159 178.024C143.467 175.922 154.584 174.827 163.49 177.217C182.163 182.257 185.121 205.955 170.212 213.183C165.242 215.573 158.893 215.86 152.746 212.463C148.638 210.188 144.386 206.214 139.474 202.931C127.811 195.157 117.526 190.319 103.622 188.447ZM-80.6915 152.77C-89.5107 145.427 -98.3013 139.006 -107.034 134.111C-115.365 129.446 -125.736 125.242 -134.928 125.012C-154.262 124.551 -163.771 146.435 -151.533 157.579C-147.454 161.294 -141.421 163.367 -134.584 161.841C-130.016 160.833 -124.816 158.213 -119.157 156.456C-105.77 152.367 -94.538 150.639 -80.6915 152.77ZM-90.5162 45.3067C-75.7791 25.2076 -40.0425 22.8464 -26.3109 62.8717C-23.9265 70.0129 -21.5134 77.0965 -19.0716 84.1226C-17.5203 88.557 -15.6818 94.5752 -13.5273 100.853C1.7269 144.909 26.6908 143.901 54.4988 110.47C67.6271 94.6904 72.8842 77.8164 93.8838 69.8977C119.451 60.2514 145.622 76.895 149.672 101.659C154.958 133.909 134.562 140.993 113.16 153.375C106.466 157.262 98.9972 161.956 92.3325 167.139C82.278 174.971 74.1195 183.927 73.43 192.824C71.6489 216.235 147 231.064 174.263 246.355C212.24 264.294 195.434 312.209 161.939 312.497C152.746 312.583 143.41 308.638 133.958 301.008L68.058 242.554C63.8064 238.695 58.0322 238.925 54.4988 242.006C48.0351 247.593 65.7311 289.115 67.11 295.306C72.482 319.696 39.8479 335.879 30.569 298.675C23.7032 271.118 0.7789 237.802 -13.0102 270.6L-15.5382 278.634C-19.7898 292.11 -22.5763 314.311 -39.0658 317.133C-53.1708 319.552 -66.7301 304.406 -61.3868 290.555C-55.3828 277.712 -41.4501 258.276 -47.0232 244.224C-48.2297 241.143 -51.045 238.177 -53.6592 236.219C-64.8341 227.839 -76.842 232.043 -89.1373 232.85C-97.4395 233.397 -103.874 232.763 -108.93 230.805C-124.874 224.585 -128.608 207.769 -122.461 195.387C-111.545 173.33 -90.43 185.51 -71.6137 178.052C-28.8676 161.178 -61.7602 122.046 -77.9049 102.35C-91.6078 85.7063 -106.489 67.047 -90.5162 45.3067ZM-109.534 265.964C-104.391 265.964 -100.226 270.139 -100.226 275.294C-100.226 280.448 -104.391 284.623 -109.534 284.623C-114.676 284.623 -118.841 280.448 -118.841 275.294C-118.841 270.139 -114.647 265.964 -109.534 265.964ZM10.6611 323.151C14.1945 323.151 17.0385 326.031 17.0385 329.544C17.0385 333.057 14.1658 335.936 10.6611 335.936C7.12761 335.936 4.28362 333.057 4.28362 329.544C4.28362 326.031 7.12761 323.151 10.6611 323.151Z" fill="#3AB7FC"/>
<path d="M22.9852 32.8096C18.4463 25.9276 32.6088 6.57721 43.0655 9.37035C34.1888 15.0142 27.4666 24.0559 22.9852 32.8096ZM-74.6873 85.5336C-86.6666 85.8791 -90.2862 53.427 -77.6462 47.7831C-81.4382 59.7907 -80.1168 73.8139 -74.6873 85.5336ZM115.142 132.124C131 133.996 144.501 108.541 134.964 96.3605C134.131 113.235 124.651 122.622 115.142 132.124ZM172.798 201.089C176.676 192.997 167.655 181.249 156.567 182.141C164.582 186.058 169.465 192.738 172.798 201.089ZM-149.464 149.891C-153.141 144.333 -141.679 128.698 -133.233 130.944C-140.702 135.378 -146.103 142.692 -149.464 149.891ZM-114.475 208.316C-115.825 215.601 -97.4106 226.63 -89.7404 220.669C-99.0193 219.114 -107.724 213.989 -114.475 208.316Z" fill="white"/>
</g>
<defs>
<clipPath id="clip0_11_141">
<rect width="196" height="353" fill="white"/>
</clipPath>
</defs>
</svg>
