<svg width="140" height="303" viewBox="0 0 140 303" fill="none" xmlns="http://www.w3.org/2000/svg">
<g clip-path="url(#clip0_11_225)">
<path fill-rule="evenodd" clip-rule="evenodd" d="M281.606 199.372C286.716 194.262 295.011 194.262 300.12 199.372C305.23 204.482 305.23 212.776 300.12 217.886C295.011 222.995 286.716 222.995 281.606 217.886C276.479 212.794 276.479 204.499 281.606 199.372ZM65.9842 61.655C59.0371 60.2376 55.9048 39.8513 63.9718 35.1791C61.9944 44.0161 63.3943 53.6055 65.9842 61.655ZM38.5283 153.192C31.4412 160.699 9.51502 143.183 13.7848 132.053C18.772 141.66 28.0989 149.377 38.5283 153.192ZM182.475 65.8723C193.272 57.3503 186.027 33.6567 172.815 32.0643C182.562 42.8261 182.492 54.3055 182.475 65.8723ZM259.505 72.6619C256.95 65.3823 244.316 63.7374 238.104 71.0345C245.366 68.5321 252.401 69.6171 259.505 72.6619ZM32.0887 237.852C26.4715 236.715 23.9517 220.231 30.4613 216.451C28.6064 223.695 29.7613 231.43 32.0887 237.852ZM88.9078 252.044C92.5126 257.293 110.432 252.779 111.481 244.484C104.884 249.191 96.4674 251.379 88.9078 252.044ZM100.125 108.185C89.3278 100.118 79.5809 91.8407 71.6013 83.1962C64.0068 74.9717 56.3247 64.2799 53.5599 53.8155C47.7328 31.8543 70.0439 14.9678 86.1255 25.9046C91.4802 29.5444 95.4874 35.8615 95.6449 44.1036C95.7499 49.5982 94.1925 56.2653 93.755 63.2124C92.7401 79.6264 93.8775 92.9432 100.125 108.185ZM209.686 107.117C213.343 97.9304 217.35 89.4784 221.952 82.1813C226.345 75.2342 232.452 67.7972 239.329 63.8249C253.766 55.5129 269.97 68.1121 265.28 81.5863C263.705 86.0661 260.013 90.1083 254.203 91.7882C250.318 92.9082 245.314 93.0831 240.326 94.0806C228.497 96.4605 219.293 99.7853 209.686 107.117ZM75.7311 197.709C65.8967 198.619 56.6397 200.072 48.3452 202.417C40.4357 204.657 31.5637 208.419 25.8241 213.878C13.7673 225.375 21.2743 244.467 35.501 243.784C40.2432 243.557 45.1779 241.142 48.4152 236.05C50.5851 232.655 52.16 227.895 54.5399 223.38C60.2095 212.741 66.0017 204.849 75.7311 197.709ZM4.44032 138.388C1.20302 117.197 21.5368 93.9931 54.2249 109.952C60.017 112.839 65.7917 115.674 71.5489 118.457C75.1886 120.207 79.9659 122.744 85.093 125.246C121.158 142.728 135.753 126.909 132.375 89.6534C130.783 72.0669 123.731 58.6102 131.71 41.0062C141.422 19.57 167.478 13.7429 184.995 26.3246C207.813 42.7036 199.694 59.4326 194.182 79.9939C192.467 86.4335 190.769 93.8356 189.859 101.045C188.494 111.93 188.967 122.341 193.954 128.169C207.096 143.48 262.008 106.592 287.906 99.2778C321.942 87.046 340.823 126.401 320.594 146.98C315.047 152.632 306.962 155.922 296.568 157.042L220.902 161.662C215.968 161.907 212.59 165.564 212.31 169.589C211.768 176.921 247.781 191.375 252.383 194.297C270.477 205.846 260.433 235.56 232.172 218.603C211.243 206.039 177.033 199.757 188.564 228.088L191.907 234.51C197.506 245.289 209.301 260.478 200.971 272.238C193.849 282.299 176.385 281.354 171.223 269.683C167.076 258.221 163.751 237.922 151.817 232.777C149.209 231.64 145.692 231.552 142.91 231.955C131.01 233.67 126.251 243.539 119.251 251.519C114.526 256.908 110.222 260.443 105.952 262.333C92.4601 268.265 79.9659 260.321 76.1861 249.051C69.4315 228.998 89.6953 223.538 96.6249 207.544C112.409 171.251 68.5915 167.506 46.7878 165.371C28.3264 163.604 7.92262 161.329 4.44032 138.388ZM126.951 284.067C130.083 280.935 135.158 280.935 138.29 284.067C141.422 287.199 141.422 292.274 138.29 295.406C135.158 298.538 130.083 298.538 126.951 295.406C123.818 292.274 123.836 287.182 126.951 284.067ZM234.919 245.604C237.072 243.452 240.554 243.469 242.689 245.604C244.824 247.739 244.824 251.239 242.689 253.374C240.536 255.526 237.054 255.509 234.919 253.374C232.784 251.239 232.767 247.756 234.919 245.604Z" fill="#3AB7FC"/>
<path d="M65.9844 61.655C59.0373 60.2376 55.905 39.8513 63.972 35.1791C61.9946 44.016 63.3945 53.6055 65.9844 61.655ZM38.5285 153.192C31.4414 160.699 9.51523 143.183 13.785 132.053C18.7722 141.66 28.0991 149.377 38.5285 153.192ZM182.475 65.8722C193.272 57.3502 186.027 33.6566 172.816 32.0642C182.562 42.8261 182.492 54.3054 182.475 65.8722ZM259.505 72.6618C256.951 65.3823 244.316 63.7373 238.104 71.0344C245.366 68.5321 252.401 69.617 259.505 72.6618ZM32.0889 237.852C26.4717 236.715 23.9519 220.231 30.4615 216.451C28.6066 223.695 29.7615 231.43 32.0889 237.852ZM88.908 252.044C92.5128 257.293 110.432 252.779 111.482 244.484C104.885 249.191 96.4676 251.379 88.908 252.044Z" fill="white"/>
</g>
<defs>
<clipPath id="clip0_11_225">
<rect width="152" height="303" fill="white"/>
</clipPath>
</defs>
</svg>
