<svg width="136" height="125" viewBox="0 0 136 125" fill="none" xmlns="http://www.w3.org/2000/svg">
<path d="M123.609 80.9869C121.152 86.2311 125.032 94.4751 119.862 97.8577C112.363 102.763 98.6379 89.8646 91.6989 95.3712C84.1823 101.336 100.974 119.079 91.5731 122.374C80.9093 126.112 77.005 105.965 67.5737 100.205C64.3815 98.2552 60.514 95.2994 56.7471 96.1351C43.5021 99.0736 43.781 128.668 30.9187 124.62C20.8249 121.444 29.1965 105.268 31.3241 96.0151C32.8194 89.5122 44.4541 82.7112 39.9431 77.3972C32.0799 68.1344 5.13759 91.6782 0.350325 80.9086C-3.25733 72.7927 22.1379 73.5158 24.2963 65.0099C25.3571 60.8293 19.0099 57.5761 17.4237 53.5266C15.5051 48.6283 10.7433 42.2409 14.2442 38.0766C18.0285 33.5752 29.0963 40.2351 33.3841 36.0986C39.5889 30.1129 26.1389 15.6029 34.1058 11.5459C40.7986 8.13776 47.1618 22.8667 54.7048 21.3741C64.3611 19.4634 62.6317 1.29489 72.43 0.0669486C79.4681 -0.815073 84.4517 7.23148 89.5037 11.6365C93.9869 15.5455 98.9261 19.7337 101.313 24.877C103.68 29.9803 102.819 35.9925 103.396 41.4819C103.829 45.602 101.682 50.6479 104.459 53.9854C111.031 61.8837 132.449 55.6562 135.739 65.0099C137.869 71.0684 126.355 75.1238 123.609 80.9869Z" fill="#D81484"/>
</svg>
