<svg width="100" height="101" viewBox="0 0 100 101" fill="none" xmlns="http://www.w3.org/2000/svg">
<path d="M90.6313 62.1874C89.0158 66.1196 91.5675 72.3012 88.1668 74.8375C83.2354 78.5155 74.2086 68.8441 69.645 72.9731C64.7016 77.4458 75.7449 90.7501 69.5623 93.2206C62.5491 96.023 59.9813 80.9164 53.7786 76.5974C51.6792 75.1355 49.1357 72.9193 46.6583 73.5459C37.9475 75.7493 38.1309 97.94 29.6717 94.9049C23.0333 92.523 28.5391 80.3938 29.9384 73.4559C30.9218 68.5798 38.5736 63.4803 35.6068 59.4958C30.4354 52.5502 12.7163 70.204 9.56786 62.1287C7.19522 56.0431 23.8969 56.5854 25.3164 50.2075C26.0141 47.0728 21.8397 44.6334 20.7965 41.597C19.5347 37.9241 16.403 33.1347 18.7054 30.0122C21.1942 26.6369 28.4732 31.6307 31.2932 28.5291C35.3739 24.0408 26.5283 13.1608 31.7678 10.1189C36.1695 7.56332 40.3543 18.6075 45.3151 17.4883C51.6658 16.0555 50.5284 2.43237 56.9725 1.51163C61.6012 0.850264 64.8788 6.88376 68.2013 10.1867C71.1498 13.1178 74.3981 16.2583 75.9677 20.1148C77.525 23.9414 76.9581 28.4495 77.3378 32.5656C77.6229 35.6549 76.2104 39.4385 78.0367 41.941C82.3589 47.8634 96.4451 43.1938 98.6086 50.2075C100.01 54.7502 92.4375 57.7911 90.6313 62.1874Z" fill="#EFAF2F"/>
</svg>
